<?xml version="1.0" encoding="UTF-8"?>
<svg version="1.1" xmlns="http://www.w3.org/2000/svg" width="274" height="281">
<path d="M0 0 C3.61875188 3.07244272 6.99207185 6.36553126 10.3671875 9.70117188 C11.08390625 10.34570312 11.800625 10.99023438 12.5390625 11.65429688 C29.54872335 27.30318486 39.35520549 51.74597045 40.5703125 74.50585938 C41.07095695 100.68378755 33.18977917 124.22888577 15.3671875 143.70117188 C14.53574219 144.62542969 13.70429688 145.5496875 12.84765625 146.50195312 C3.68897658 156.19701227 -8.46936993 165.41031123 -21.6328125 168.70117188 C-24.8515625 168.50585938 -24.8515625 168.50585938 -27.6328125 167.70117188 C-29.6328125 164.70117188 -29.6328125 164.70117188 -29.7578125 161.82617188 C-28.06741056 157.13061092 -24.85918804 156.05283852 -20.6328125 153.70117188 C0.01872114 141.13962648 15.02754586 123.99432929 21.3046875 100.26367188 C26.32135737 76.62743883 22.17428075 54.10894745 9.3671875 33.70117188 C-2.88061869 16.37182908 -21.22605625 3.59064569 -42.125 -0.73242188 C-64.26721279 -4.30772349 -86.25334336 -1.12251026 -104.94921875 11.94726562 C-107.89939142 14.13681806 -110.77633924 16.39122862 -113.6328125 18.70117188 C-114.29925781 19.20261719 -114.96570313 19.7040625 -115.65234375 20.22070312 C-128.71244917 30.45062769 -137.7657798 49.62940569 -140.6328125 65.70117188 C-143.12712505 86.25892798 -139.97594739 104.8928341 -129.76953125 123.01757812 C-128.45177756 126.12856363 -128.3550291 128.35364653 -128.6328125 131.70117188 C-129.6328125 133.57617188 -129.6328125 133.57617188 -131.6328125 134.70117188 C-134.71930968 135.09310802 -136.68128408 135.31432035 -139.6328125 134.70117188 C-141.7578125 132.82617188 -141.7578125 132.82617188 -143.6328125 129.70117188 C-144.09300781 129.03085938 -144.55320312 128.36054688 -145.02734375 127.66992188 C-157.44188812 108.81238613 -160.92987402 81.75370025 -156.44140625 59.80664062 C-151.41947414 40.51951007 -143.40451353 25.81277602 -129.93554688 11.12548828 C-128.87277046 9.96352471 -127.83491108 8.77881147 -126.8046875 7.58789062 C-95.80231166 -26.46774951 -35.15810533 -27.96667469 0 0 Z " fill="#9B3044" transform="translate(194.6328125,30.298828125)"/>
<path d="M0 0 C1.11435686 0.90425139 2.21823648 1.82153398 3.3125 2.75 C4.10398437 3.34425781 4.89546875 3.93851563 5.7109375 4.55078125 C18.52194191 15.3805042 26.04113013 32.39215205 28.3125 48.75 C29.61212913 69.16056891 24.88445498 87.6494385 11.33984375 103.5078125 C10.67082031 104.24773437 10.00179687 104.98765625 9.3125 105.75 C8.67441406 106.46929687 8.03632813 107.18859375 7.37890625 107.9296875 C2.60925387 113.01603712 -2.56883079 116.45912155 -8.6875 119.75 C-9.33332031 120.11867187 -9.97914063 120.48734375 -10.64453125 120.8671875 C-16.6405643 124.12398019 -23.14554109 125.90682904 -29.6875 127.75 C-30.34105469 127.9459375 -30.99460937 128.141875 -31.66796875 128.34375 C-34.53754522 128.92099556 -37.32549769 128.9992855 -40.25 129.0625 C-41.38566406 129.09988281 -42.52132812 129.13726562 -43.69140625 129.17578125 C-46.6875 128.75 -46.6875 128.75 -48.59375 126.89453125 C-49.6875 124.75 -49.6875 124.75 -49.625 122.125 C-48.6875 119.75 -48.6875 119.75 -47.16015625 118.68359375 C-43.59951828 117.33921385 -39.93624108 116.9552905 -36.1875 116.4375 C-22.74063258 114.34122029 -13.18829337 109.47773365 -2.6875 100.75 C-2.01847656 100.23050781 -1.34945312 99.71101563 -0.66015625 99.17578125 C10.19310897 89.79915076 14.80026599 72.92662607 16.65234375 59.23828125 C17.31956462 44.79962169 11.17056942 28.94948148 2.3125 17.75 C-1.1399908 14.42808752 -4.81218048 11.56043002 -8.6875 8.75 C-9.45320313 8.1725 -10.21890625 7.595 -11.0078125 7 C-22.79874092 -1.45227844 -37.93825614 -4.87364543 -52.23046875 -2.71484375 C-68.47709267 0.26723466 -83.07540523 6.55763356 -93.6875 19.75 C-104.1753137 35.18541569 -108.48597886 50.76546821 -105.2265625 69.3828125 C-102.73334953 80.22990791 -97.56002504 91.96126524 -89.10546875 99.37109375 C-86.85108058 101.56337757 -86.16264774 103.69547883 -85.6875 106.75 C-86.5625 109.125 -86.5625 109.125 -87.6875 110.75 C-93.89619565 111.35869565 -93.89619565 111.35869565 -97.125 108.875 C-97.99578656 107.84718635 -98.84743539 106.80307245 -99.6875 105.75 C-100.29464844 105.0796875 -100.90179688 104.409375 -101.52734375 103.71875 C-116.31953776 86.68359375 -118.99458469 66.59869998 -117.6875 44.75 C-115.58283825 26.66128546 -103.59681537 10.81085557 -89.9375 -0.5625 C-63.1083909 -20.92944827 -26.7215479 -19.71589864 0 0 Z " fill="#9E3549" transform="translate(180.6875,53.25)"/>
<path d="M0 0 C11.33913313 8.08827055 20.26610154 19.28919233 22.84765625 33.15625 C25.29184374 48.53555018 23.79296142 62.89587813 14.84765625 76.03125 C9.70307306 82.71630161 4.17636986 87.8603304 -3.15234375 92.03125 C-3.79816406 92.40894531 -4.44398438 92.78664063 -5.109375 93.17578125 C-14.01253321 98.01721351 -22.72280424 99.17601957 -32.71484375 99.46875 C-42.90350831 99.79635407 -51.04866077 101.13807437 -58.75 108.33203125 C-63.62454608 114.23851467 -64.23615413 122.27976852 -64.08984375 129.65625 C-64.04729551 133.2181458 -64.36775522 135.85864816 -66.15234375 139.03125 C-68.98118122 140.44566874 -71.0261112 140.35025332 -74.15234375 140.03125 C-76.78824901 137.59288331 -77.14543283 136.0926352 -77.55078125 132.4921875 C-77.56378863 131.13024804 -77.55499452 129.76797087 -77.52734375 128.40625 C-77.51719238 127.69202881 -77.50704102 126.97780762 -77.49658203 126.24194336 C-77.20226308 116.14954113 -74.14229883 109.09279812 -68.15234375 101.03125 C-67.57484375 100.144375 -66.99734375 99.2575 -66.40234375 98.34375 C-58.7490934 90.47790937 -48.55740776 86.80333137 -37.81054688 86.55859375 C-36.34004883 86.54505859 -36.34004883 86.54505859 -34.83984375 86.53125 C-21.98167217 86.41147994 -11.39357576 84.22750757 -1.15234375 76.03125 C1.20403215 73.54287794 3.05952026 70.94782133 4.84765625 68.03125 C5.23566406 67.4434375 5.62367188 66.855625 6.0234375 66.25 C12.0680118 56.57868112 12.37101928 43.83125438 10.23046875 32.87109375 C6.72717499 22.09769037 -0.13585627 13.31923348 -10.15234375 8.03125 C-20.24671796 2.91326067 -33.56234948 2.21565972 -44.52734375 5.09375 C-55.66100067 9.15962471 -62.87418316 15.7589225 -68.40234375 26.03125 C-73.26913336 36.55568253 -73.93771436 48.45189957 -70.40234375 59.53125 C-69.1439738 62.89141348 -67.72230085 65.91877595 -65.83984375 68.96875 C-64.15234375 72.03125 -64.15234375 72.03125 -64.27734375 74.84375 C-65.15234375 77.03125 -65.15234375 77.03125 -67.15234375 79.03125 C-69.40234375 79.59375 -69.40234375 79.59375 -72.15234375 79.03125 C-80.00694717 72.38815353 -83.52426983 62.39872237 -84.375 52.41943359 C-85.26018642 31.37717885 -85.26018642 31.37717885 -80.15234375 22.03125 C-79.70503906 21.17660156 -79.25773437 20.32195312 -78.796875 19.44140625 C-70.71362773 5.03025495 -59.76534415 -2.84903984 -44.15234375 -7.96875 C-29.0322949 -12.21394321 -12.98360716 -8.07412724 0 0 Z " fill="#9A3448" transform="translate(166.15234375,64.96875)"/>
<path d="M0 0 C4.8547265 0.41611941 6.80439079 2.45891952 10 6 C11.85816939 8.13588939 11.85816939 8.13588939 14.38671875 8.88671875 C25.71217026 13.71146267 32.97608938 30.97073313 37.68359375 41.52734375 C46.37057674 64.44345022 46.88155323 91.31539084 37 114 C32.18613122 123.93101386 26.47030187 132.83823217 19 141 C18.16855469 141.92425781 17.33710938 142.84851563 16.48046875 143.80078125 C7.32178908 153.4958404 -4.83655743 162.70913936 -18 166 C-21.21875 165.8046875 -21.21875 165.8046875 -24 165 C-26 162 -26 162 -26.125 159.125 C-24.43459806 154.42943905 -21.22637554 153.35166664 -17 151 C3.65153364 138.43845461 18.66035836 121.29315741 24.9375 97.5625 C29.95416987 73.92626696 25.80709325 51.40777558 13 31 C8.34273055 24.41045919 3.14274883 18.89207755 -3.15234375 13.8515625 C-5.27519935 11.72421883 -6.07037837 9.83266906 -7 7 C-6.34 6.67 -5.68 6.34 -5 6 C-5 5.34 -5 4.68 -5 4 C-4.34 4 -3.68 4 -3 4 C-2.67 3.34 -2.34 2.68 -2 2 C-1.34 1.67 -0.68 1.34 0 1 C0 0.67 0 0.34 0 0 Z " fill="#832138" transform="translate(191,33)"/>
<path d="M0 0 C2.13707727 1.21467504 4.24073361 2.48950388 6.3125 3.8125 C9.94000707 6.11929109 13.56541744 8.3378613 17.33203125 10.41015625 C22.08886878 13.02759819 26.73976025 15.79882367 31.375 18.625 C32.16777344 19.10195312 32.96054688 19.57890625 33.77734375 20.0703125 C34.53917969 20.534375 35.30101562 20.9984375 36.0859375 21.4765625 C36.7670459 21.88986816 37.4481543 22.30317383 38.14990234 22.72900391 C40.04054906 24.02785674 41.53778889 25.23036386 43 27 C43.5 30.4375 43.5 30.4375 43 34 C39.17148428 37.62276056 34.60301788 40.12936716 30.0625 42.75 C29.31613281 43.18538086 28.56976563 43.62076172 27.80078125 44.06933594 C24.24247333 46.1404769 20.67291646 48.19076956 17.08984375 50.21875 C16.48720703 50.5600293 15.88457031 50.90130859 15.26367188 51.25292969 C13.53992082 52.22743126 11.81489684 53.19968013 10.08984375 54.171875 C7.29528129 55.82529501 4.69310884 57.60134809 2.0625 59.5 C-0.86215061 61.48419604 -2.19204183 62.03463049 -5.8125 62.6875 C-9 62 -9 62 -11.16601562 60.21704102 C-13.99736205 55.25050056 -13.57108147 50.46180313 -13.53125 44.83984375 C-13.5350769 43.65781876 -13.53890381 42.47579376 -13.54284668 41.25794983 C-13.54556561 38.76237129 -13.53820588 36.26676424 -13.52148438 33.77124023 C-13.5000575 29.94776054 -13.52129863 26.12615601 -13.546875 22.30273438 C-13.5442321 19.87760001 -13.5391079 17.45246682 -13.53125 15.02734375 C-13.53934692 13.88249008 -13.54744385 12.73763641 -13.55578613 11.55809021 C-13.54317749 10.49341019 -13.53056885 9.42873016 -13.51757812 8.33178711 C-13.51439575 7.39644638 -13.51121338 6.46110565 -13.50793457 5.49742126 C-12.84467329 2.236287 -11.5644976 1.057717 -9 -1 C-5.12294361 -2.29235213 -3.75074928 -1.52131487 0 0 Z " fill="#FCFBFB" transform="translate(124,79)"/>
<path d="M0 0 C0.99 0.495 0.99 0.495 2 1 C2.09765625 7.15234375 2.09765625 7.15234375 2 9 C1.67 9.33 1.34 9.66 1 10 C1.12375 11.155 1.2475 12.31 1.375 13.5 C1.43617196 20.35125975 -3.58700346 24.48108949 -8.046875 29.13671875 C-19.53151838 40.13934243 -33.09634544 43.96161832 -48.5625 44.4375 C-58.75154983 44.7667819 -66.89557766 46.10613372 -74.59765625 53.30078125 C-79.47220233 59.20726467 -80.08381038 67.24851852 -79.9375 74.625 C-79.89495176 78.1868958 -80.21541147 80.82739816 -82 84 C-84.82883747 85.41441874 -86.87376745 85.31900332 -90 85 C-92.63590526 82.56163331 -92.99308908 81.0613852 -93.3984375 77.4609375 C-93.41144488 76.09899804 -93.40265077 74.73672087 -93.375 73.375 C-93.36484863 72.66077881 -93.35469727 71.94655762 -93.34423828 71.21069336 C-93.04991933 61.11829113 -89.98995508 54.06154812 -84 46 C-83.4225 45.113125 -82.845 44.22625 -82.25 43.3125 C-74.59674965 35.44665937 -64.40506401 31.77208137 -53.65820312 31.52734375 C-52.18770508 31.51380859 -52.18770508 31.51380859 -50.6875 31.5 C-37.81111833 31.38006032 -27.26682073 29.18060275 -17 21 C-11.97235371 15.87669025 -8.98834611 9.45271195 -6 3 C-5.01 3.495 -5.01 3.495 -4 4 C-2.68 2.68 -1.36 1.36 0 0 Z " fill="#771E33" transform="translate(182,120)"/>
<path d="M0 0 C0.66 0.33 1.32 0.66 2 1 C1.67 1.66 1.34 2.32 1 3 C1.33 3.66 1.66 4.32 2 5 C2.99 5 3.98 5 5 5 C4 7 4 7 2 9 C2.99 10.485 2.99 10.485 4 12 C2.96875 12.66 1.9375 13.32 0.875 14 C-6.97039878 19.62649811 -12.64436803 29.132803 -14.6796875 38.55078125 C-16.24641709 50.53053068 -15.10191971 61.54479908 -8.6875 71.9375 C-7 75 -7 75 -7.125 77.8125 C-8 80 -8 80 -10 82 C-12.25 82.5625 -12.25 82.5625 -15 82 C-22.85460342 75.35690353 -26.37192608 65.36747237 -27.22265625 55.38818359 C-28.10784267 34.34592885 -28.10784267 34.34592885 -23 25 C-22.55269531 24.14535156 -22.10539062 23.29070312 -21.64453125 22.41015625 C-16.13577749 12.58891965 -9.43395667 6.07417733 0 0 Z " fill="#88273C" transform="translate(109,62)"/>
<path d="M0 0 C1.5625 1.8125 1.5625 1.8125 3 4 C2.67 4.99 2.34 5.98 2 7 C2.38932856 9.14255793 2.38932856 9.14255793 3 11 C3.99 11 4.98 11 6 11 C6.66 9.35 7.32 7.7 8 6 C8.66 6 9.32 6 10 6 C8.34018297 16.47401782 1.9051598 25.25785113 -5 33 C-5.639375 33.721875 -6.27875 34.44375 -6.9375 35.1875 C-11.70936404 40.26722623 -16.88380689 43.7104533 -23 47 C-23.64582031 47.36867187 -24.29164063 47.73734375 -24.95703125 48.1171875 C-30.9530643 51.37398019 -37.45804109 53.15682904 -44 55 C-44.65355469 55.1959375 -45.30710938 55.391875 -45.98046875 55.59375 C-48.85004522 56.17099556 -51.63799769 56.2492855 -54.5625 56.3125 C-55.69816406 56.34988281 -56.83382812 56.38726562 -58.00390625 56.42578125 C-61 56 -61 56 -62.90625 54.14453125 C-64 52 -64 52 -63.9375 49.375 C-63 47 -63 47 -61.47265625 45.93359375 C-57.91201828 44.58921385 -54.24874108 44.2052905 -50.5 43.6875 C-37.05313258 41.59122029 -27.50079337 36.72773365 -17 28 C-15.99646484 27.22076172 -15.99646484 27.22076172 -14.97265625 26.42578125 C-7.4837295 19.9557561 -3.47604477 9.06947721 0 0 Z " fill="#6F192F" transform="translate(195,126)"/>
<path d="M0 0 C0 14.52 0 29.04 0 44 C-3.96 44 -7.92 44 -12 44 C-13.4025 44.2475 -14.805 44.495 -16.25 44.75 C-21.15723611 45.07714907 -24.14282443 44.02475093 -28 41 C-31.49161837 36.92932611 -34 32.45408436 -34 27 C-32.27456228 21.82368685 -29.97248791 16.91516 -25.25390625 13.875 C-22.35922342 12.75124098 -19.97269676 12.77063923 -16.875 12.8125 C-15.82054688 12.81894531 -14.76609375 12.82539063 -13.6796875 12.83203125 C-11 13 -11 13 -9 14 C-9 9.38 -9 4.76 -9 0 C-6 -1 -6 -1 0 0 Z M-21.375 23.625 C-23.19887378 25.94844013 -23.19887378 25.94844013 -23.5625 29 C-23.23917924 32.15790202 -23.23917924 32.15790202 -20.8125 34.4375 C-18.16289273 36.20741 -18.16289273 36.20741 -15.4375 36 C-12.40691578 34.7566834 -10.89162712 33.6919309 -9 31 C-9.06501759 27.81413804 -9.48085954 25.81969546 -11.1875 23.125 C-14.82539974 20.86699326 -17.9306098 21.26831197 -21.375 23.625 Z " fill="#FBF8FB" transform="translate(123,226)"/>
<path d="M0 0 C2.64 0.66 5.28 1.32 8 2 C7.01 2.495 7.01 2.495 6 3 C5.835 3.825 5.67 4.65 5.5 5.5 C5.335 6.325 5.17 7.15 5 8 C4.01 8.495 4.01 8.495 3 9 C3.02320312 9.60328125 3.04640625 10.2065625 3.0703125 10.828125 C3.09738281 12.02695313 3.09738281 12.02695313 3.125 13.25 C3.14820312 14.03890625 3.17140625 14.8278125 3.1953125 15.640625 C2.9828378 18.20731941 2.28654105 19.7916067 1 22 C1.33 22 1.66 22 2 22 C2.05395478 23.62463842 2.09277195 25.24978541 2.125 26.875 C2.14820312 27.77992187 2.17140625 28.68484375 2.1953125 29.6171875 C2 32 2 32 0 34 C0.61359375 34.18046875 1.2271875 34.3609375 1.859375 34.546875 C5.04304413 36.70805185 5.35573592 39.69941587 6.25 43.25 C9.37677847 54.31514077 14.47665444 64.12000287 22.65234375 72.3515625 C24.20419664 74.24977096 24.6864408 75.57971491 25 78 C24.0625 80.25 24.0625 80.25 23 82 C16.79130435 82.60869565 16.79130435 82.60869565 13.5625 80.125 C12.69171344 79.09718635 11.84006461 78.05307245 11 77 C10.39285156 76.3296875 9.78570312 75.659375 9.16015625 74.96875 C-5.93119582 57.58907391 -7.52333837 38.12513606 -7 16 C-5.68 15.34 -4.36 14.68 -3 14 C-3 13.01 -3 12.02 -3 11 C-2.690625 10.4225 -2.38125 9.845 -2.0625 9.25 C-0.63860793 6.23469916 -0.37988357 3.29232427 0 0 Z " fill="#87263B" transform="translate(70,82)"/>
<path d="M0 0 C3.7646062 0.54055884 7.48789771 0.38839895 11.28515625 0.328125 C12.73339136 3.22459522 12.29035259 5.63977417 12.1640625 8.8671875 C12.11572266 10.16914063 12.06738281 11.47109375 12.01757812 12.8125 C11.96105231 14.19271304 11.90441017 15.57292132 11.84765625 16.953125 C11.79443332 18.34112719 11.74169293 19.72914797 11.68945312 21.1171875 C11.55944462 24.52104641 11.42446742 27.92463617 11.28515625 31.328125 C10.157146 31.30637207 10.157146 31.30637207 9.00634766 31.28417969 C8.01812012 31.27290039 7.02989258 31.26162109 6.01171875 31.25 C5.03283691 31.23549805 4.05395508 31.22099609 3.04541016 31.20605469 C0.08203938 31.20624407 0.08203938 31.20624407 -3.33984375 32.578125 C-8.29447722 33.67915466 -11.51613402 31.97779619 -15.71484375 29.328125 C-18.08984375 26.953125 -18.08984375 26.953125 -19.71484375 24.328125 C-20.31296875 23.379375 -20.91109375 22.430625 -21.52734375 21.453125 C-23.44188062 16.41487008 -22.32498171 12.82573635 -20.33984375 7.953125 C-18.71484375 5.328125 -18.71484375 5.328125 -15.71484375 4.328125 C-15.71484375 3.668125 -15.71484375 3.008125 -15.71484375 2.328125 C-10.1617216 0.00447814 -5.96182119 -0.96735018 0 0 Z M-11.21484375 11.453125 C-12.94500462 14.24962494 -12.94500462 14.24962494 -12.77734375 17.453125 C-11.93039552 20.45897799 -11.93039552 20.45897799 -9.46484375 22.265625 C-6.22854301 23.51601392 -4.93738593 23.5675643 -1.71484375 22.328125 C0.76497377 20.76507974 0.76497377 20.76507974 2.28515625 18.328125 C2.22074287 15.17186937 1.78411353 13.15972047 0.16015625 10.453125 C-3.97166983 7.97402935 -7.63670661 8.41170843 -11.21484375 11.453125 Z " fill="#FBF9FB" transform="translate(36.71484375,238.671875)"/>
<path d="M0 0 C1.37478516 0.01740234 1.37478516 0.01740234 2.77734375 0.03515625 C3.69644531 0.04417969 4.61554687 0.05320313 5.5625 0.0625 C6.27277344 0.07410156 6.98304687 0.08570313 7.71484375 0.09765625 C7.7398999 0.69827881 7.76495605 1.29890137 7.79077148 1.91772461 C7.90639655 4.62377062 8.02927311 7.32943908 8.15234375 10.03515625 C8.19166016 10.98068359 8.23097656 11.92621094 8.27148438 12.90039062 C8.33432617 14.24907227 8.33432617 14.24907227 8.3984375 15.625 C8.43509521 16.45765381 8.47175293 17.29030762 8.50952148 18.14819336 C8.50851478 20.10104483 8.50851478 20.10104483 9.71484375 21.09765625 C13.17296544 21.43104221 13.17296544 21.43104221 16.71484375 21.09765625 C18.78208089 17.99680054 18.95981798 17.36833944 18.91015625 13.8671875 C18.90371094 13.06474609 18.89726563 12.26230469 18.890625 11.43554688 C18.87386719 10.60216797 18.85710937 9.76878906 18.83984375 8.91015625 C18.83082031 8.06517578 18.82179688 7.22019531 18.8125 6.34960938 C18.78895078 4.26550382 18.75308022 2.18154408 18.71484375 0.09765625 C22.01484375 0.09765625 25.31484375 0.09765625 28.71484375 0.09765625 C28.71484375 10.32765625 28.71484375 20.55765625 28.71484375 31.09765625 C24.75484375 31.09765625 20.79484375 31.09765625 16.71484375 31.09765625 C15.27109375 31.32453125 13.82734375 31.55140625 12.33984375 31.78515625 C8.02746836 32.15691275 6.26495231 31.51818481 2.71484375 29.09765625 C-0.82025421 25.39391141 -1.79280819 23.00171681 -1.97265625 17.91015625 C-2.02550781 16.77707031 -2.07835937 15.64398438 -2.1328125 14.4765625 C-2.18308594 13.36152344 -2.23335937 12.24648437 -2.28515625 11.09765625 C-2.56252267 8.36963459 -2.874255 5.64845051 -3.19921875 2.92578125 C-3.22757813 2.3225 -3.2559375 1.71921875 -3.28515625 1.09765625 C-2.28515625 0.09765625 -2.28515625 0.09765625 0 0 Z " fill="#FAF8FA" transform="translate(56.28515625,238.90234375)"/>
<path d="M0 0 C3.50875272 3.32658272 5.54637028 6.61763641 6.25 11.4375 C6.08539019 17.4046057 3.99160101 21.78733726 -0.12109375 26.05859375 C-3.90450422 29.26133691 -7.47689691 29.61631561 -12.25 29.3125 C-16.54840541 28.6953303 -19.43732412 27.33609139 -22.75 24.4375 C-23.5 22.25 -23.5 22.25 -23.75 20.4375 C-24.41 20.1075 -25.07 19.7775 -25.75 19.4375 C-27.52434897 14.70590275 -26.45623664 10.03726237 -24.75 5.4375 C-22.3010531 1.18998227 -19.58183593 -1.66411218 -14.8125 -3.0625 C-9.10561868 -4.01726341 -4.66221043 -3.58706757 0 0 Z M-13.75 6.4375 C-13.75 7.0975 -13.75 7.7575 -13.75 8.4375 C-14.74 8.7675 -15.73 9.0975 -16.75 9.4375 C-17.16345005 14.09443023 -17.16345005 14.09443023 -15.5625 18.3125 C-13.17957957 19.79155406 -11.56582552 20.30341307 -8.75 20.4375 C-5.91071467 19.51726712 -5.91071467 19.51726712 -3.75 17.4375 C-2.49670216 14.58460302 -2.49670216 14.58460302 -2.75 11.4375 C-4.09115399 8.42770117 -4.09115399 8.42770117 -6.75 6.4375 C-10.41799815 6.01978196 -10.41799815 6.01978196 -13.75 6.4375 Z " fill="#FBF8FA" transform="translate(169.75,241.5625)"/>
<path d="M0 0 C3.17860449 2.44508038 4.25702348 4.14116303 5 8 C5.1437323 9.7316239 5.24574932 11.46698333 5.31640625 13.203125 C5.35830078 14.1828125 5.40019531 15.1625 5.44335938 16.171875 C5.48267578 17.18765625 5.52199219 18.2034375 5.5625 19.25 C5.60568359 20.28125 5.64886719 21.3125 5.69335938 22.375 C5.79925587 24.91651588 5.90011481 27.45824077 6 30 C2.7 30 -0.6 30 -4 30 C-4.06058594 28.65164063 -4.12117188 27.30328125 -4.18359375 25.9140625 C-4.26799422 24.1510304 -4.35264247 22.38801016 -4.4375 20.625 C-4.47681641 19.73554688 -4.51613281 18.84609375 -4.55664062 17.9296875 C-4.59853516 17.07890625 -4.64042969 16.228125 -4.68359375 15.3515625 C-4.72025146 14.56604004 -4.75690918 13.78051758 -4.79467773 12.97119141 C-4.890891 10.92476504 -4.890891 10.92476504 -6 9 C-8.64 9 -11.28 9 -14 9 C-14.02505615 9.60062256 -14.0501123 10.20124512 -14.07592773 10.82006836 C-14.1915528 13.52611437 -14.31442936 16.23178283 -14.4375 18.9375 C-14.49647461 20.35579102 -14.49647461 20.35579102 -14.55664062 21.80273438 C-14.59853516 22.70185547 -14.64042969 23.60097656 -14.68359375 24.52734375 C-14.73858032 25.77632446 -14.73858032 25.77632446 -14.79467773 27.05053711 C-15 29 -15 29 -16 30 C-18.64 30 -21.28 30 -24 30 C-24 19.77 -24 9.54 -24 -1 C-20.37 -1 -16.74 -1 -13 -1 C-7.75708334 -2.04858333 -4.86738242 -1.90418517 0 0 Z " fill="#FBF8FA" transform="translate(205,240)"/>
<path d="M0 0 C0.99 0 1.98 0 3 0 C3 1.65 3 3.3 3 5 C3.7425 4.7525 4.485 4.505 5.25 4.25 C6.1575 4.1675 7.065 4.085 8 4 C10.125 5.875 10.125 5.875 12 8 C12.99 8.33 13.98 8.66 15 9 C23.77778709 19.77756519 26.72991605 32.49919391 26.29296875 46.2734375 C25.48014832 53.8380863 23.94479392 61.42534347 20 68 C19.34 67.67 18.68 67.34 18 67 C18 65.02 18 63.04 18 61 C18.66 61 19.32 61 20 61 C19.67 58.36 19.34 55.72 19 53 C16.9837767 53.71563266 16.9837767 53.71563266 15 55 C14.19471111 57.05000871 14.19471111 57.05000871 14 59 C11.87404683 54.49798152 11.87404683 54.49798152 12.421875 52.33203125 C14.95449295 42.11599801 13.25742056 31.40248865 9 22 C8.649375 20.865625 8.29875 19.73125 7.9375 18.5625 C6.96572243 15.90630796 5.7557786 14.19472325 4 12 C3.30419733 10.68163705 2.62775567 9.35208914 2 8 C1.01 8 0.02 8 -1 8 C-1.33 6.35 -1.66 4.7 -2 3 C-1.67 3.66 -1.34 4.32 -1 5 C-0.34 5 0.32 5 1 5 C0.67 3.35 0.34 1.7 0 0 Z " fill="#8A293E" transform="translate(164,68)"/>
<path d="M0 0 C10.47710603 12.72890196 12.2138579 30.16099355 11 46 C10.35848851 50.43785342 9.6888411 54.83002198 8 59 C6.515 59.495 6.515 59.495 5 60 C3.78130071 62.50447516 3.78130071 62.50447516 3 65 C2.01 65 1.02 65 0 65 C-0.66 64.34 -1.32 63.68 -2 63 C-2 62.34 -2 61.68 -2 61 C-2.66 60.34 -3.32 59.68 -4 59 C-2.68 58.34 -1.36 57.68 0 57 C-0.66 56.67 -1.32 56.34 -2 56 C-3.23218362 52.81040469 -2.86700955 50.57786228 -2.0625 47.3125 C0.45998024 35.44302105 -2.03391498 24.36369579 -6 13 C-5.01 12.67 -4.02 12.34 -3 12 C-2.67 10.35 -2.34 8.7 -2 7 C-2.66 6.67 -3.32 6.34 -4 6 C-2.68 4.02 -1.36 2.04 0 0 Z " fill="#89293C" transform="translate(198,73)"/>
<path d="M0 0 C4.03932853 -0.28580155 7.97005043 -0.45551292 12 0 C14.75 2.5 14.75 2.5 16 5 C16.6496875 3.7625 16.6496875 3.7625 17.3125 2.5 C20.5250923 -0.48845795 21.4999469 -0.33984912 25.75 -0.3125 C27.50126074 -0.23227209 29.25215533 -0.13560864 31 0 C29.41709978 4.44756354 27.19285141 7.39659415 24.14453125 10.9375 C22.79740161 12.95103283 22.79740161 12.95103283 23.0703125 15.359375 C24.25872151 18.73485606 26.0155342 21.31854281 28.0625 24.25 C32 29.92442882 32 29.92442882 32 31 C28.24928385 31.41382683 24.73347646 31.62399396 21 31 C18.47275532 28.86362155 17.55330462 26.99948478 16 24 C13.66475218 26.25740623 11.81294927 28.2805761 10 31 C7.3984375 31.29296875 7.3984375 31.29296875 4.375 31.1875 C2.87066406 31.14689453 2.87066406 31.14689453 1.3359375 31.10546875 C0.56507813 31.07066406 -0.20578125 31.03585937 -1 31 C0.68970089 27.33601701 2.87300211 24.09167428 5.125 20.75 C5.84945312 19.67234375 6.57390625 18.5946875 7.3203125 17.484375 C7.87460938 16.66453125 8.42890625 15.8446875 9 15 C8.24203125 13.84371094 8.24203125 13.84371094 7.46875 12.6640625 C6.8190625 11.66117188 6.169375 10.65828125 5.5 9.625 C4.8503125 8.62726563 4.200625 7.62953125 3.53125 6.6015625 C2 4 2 4 2 2 C1.34 2 0.68 2 0 2 C0 1.34 0 0.68 0 0 Z " fill="#FBF8FA" transform="translate(230,239)"/>
<path d="M0 0 C0.33 0.66 0.66 1.32 1 2 C3.97 1.34 6.94 0.68 10 0 C10.66 2.31 11.32 4.62 12 7 C11.45730469 7.4125 10.91460937 7.825 10.35546875 8.25 C3.96939142 13.40488764 1.8939413 17.53029352 0.3125 25.4375 C0.06730806 28.23268812 0.00710508 30.83217291 0.0625 33.625 C0.10504824 37.1868958 -0.21541147 39.82739816 -2 43 C-4.82883747 44.41441874 -6.87376745 44.31900332 -10 44 C-12.63590526 41.56163331 -12.99308908 40.0613852 -13.3984375 36.4609375 C-13.41144488 35.09899804 -13.40265077 33.73672087 -13.375 32.375 C-13.36484863 31.66077881 -13.35469727 30.94655762 -13.34423828 30.21069336 C-12.98203772 17.79058328 -7.85862364 9.36989742 0 0 Z " fill="#69142B" transform="translate(102,161)"/>
<path d="M0 0 C-0.0625 2.3125 -0.0625 2.3125 -1 5 C-3.30252483 6.06902939 -5.6372026 7.07175817 -8 8 C-8.33 8.99 -8.66 9.98 -9 11 C-9.66 11 -10.32 11 -11 11 C-11 12.65 -11 14.3 -11 16 C-9.35 16.33 -7.7 16.66 -6 17 C-5.67 16.01 -5.34 15.02 -5 14 C-5 14.66 -5 15.32 -5 16 C-4.34 16.33 -3.68 16.66 -3 17 C-3.4846875 17.47566406 -3.969375 17.95132813 -4.46875 18.44140625 C-16.84943702 31.36970058 -22.06185493 46.27115863 -22.1875 64.0625 C-22.125625 65.361875 -22.06375 66.66125 -22 68 C-23.65 67.67 -25.3 67.34 -27 67 C-26.67 66.01 -26.34 65.02 -26 64 C-25.34 64 -24.68 64 -24 64 C-24.14107747 62.54119891 -24.28802415 61.08296449 -24.4375 59.625 C-24.51871094 58.81289062 -24.59992188 58.00078125 -24.68359375 57.1640625 C-24.89090114 54.95727195 -24.89090114 54.95727195 -26 53 C-25.34 52.01 -24.68 51.02 -24 50 C-23.90398888 47.65816346 -24.06529828 45.39593531 -24.22265625 43.05859375 C-24.14917969 42.37925781 -24.07570313 41.69992188 -24 41 C-23.01 40.34 -22.02 39.68 -21 39 C-20.27617533 36.94074861 -20.27617533 36.94074861 -20 35 C-21.65 34.34 -23.3 33.68 -25 33 C-26.03741032 35.8728049 -26.03741032 35.8728049 -26.4375 38.4375 C-26.98365032 40.9255181 -27.87003014 42.74006029 -29 45 C-29 45.99 -29 46.98 -29 48 C-29.33 48 -29.66 48 -30 48 C-30.33 49.98 -30.66 51.96 -31 54 C-31.33 54 -31.66 54 -32 54 C-33.25373328 40.34823767 -27.86664848 28.86580822 -20 18 C-19.38125 17.13503906 -18.7625 16.27007812 -18.125 15.37890625 C-6.51474505 0 -6.51474505 0 0 0 Z " fill="#8D2E41" transform="translate(96,50)"/>
<path d="M0 0 C5.09872936 1.59335293 8.87396224 4.73355344 13 8 C13.80566406 8.60328125 14.61132812 9.2065625 15.44140625 9.828125 C18.3373844 12.28639042 20.59239648 14.88755857 22.9375 17.875 C23.75089844 18.88304688 24.56429687 19.89109375 25.40234375 20.9296875 C27 24 27 24 26.25390625 27.2578125 C25.84011719 28.16273437 25.42632812 29.06765625 25 30 C25 30.66 25 31.32 25 32 C25 34 25 36 25 38 C23.68 38 22.36 38 21 38 C19.25390625 35.55078125 19.25390625 35.55078125 17.5625 32.3125 C15.08816284 27.83562726 12.92542275 24.35097064 9 21 C8.08927734 20.17435547 8.08927734 20.17435547 7.16015625 19.33203125 C2.96905152 15.55923256 -1.35445304 12.19381353 -6 9 C-2.25 7 -2.25 7 0 7 C0 5.68 0 4.36 0 3 C-0.66 2.67 -1.32 2.34 -2 2 C-1.34 1.34 -0.68 0.68 0 0 Z " fill="#983145" transform="translate(171,48)"/>
<path d="M0 0 C0.763125 0.20625 1.52625 0.4125 2.3125 0.625 C3.5 3.3125 3.5 3.3125 4.3125 6.625 C2.9375 9.5 2.9375 9.5 1.3125 11.625 C1.9725 12.285 2.6325 12.945 3.3125 13.625 C5.40219033 23.69888452 4.48611876 34.5025382 3.3125 44.625 C0.0125 44.625 -3.2875 44.625 -6.6875 44.625 C-6.6875 34.395 -6.6875 24.165 -6.6875 13.625 C-6.0275 13.295 -5.3675 12.965 -4.6875 12.625 C-4.0275 12.955 -3.3675 13.285 -2.6875 13.625 C-3.79929163 10.28962511 -5.16161298 8.98792656 -7.6875 6.625 C-6.22846393 2.36012534 -5.12714281 -0.71541528 0 0 Z " fill="#F9F5F8" transform="translate(135.6875,225.375)"/>
<path d="M0 0 C0.66 0.33 1.32 0.66 2 1 C1.67 1.66 1.34 2.32 1 3 C1.33 3.66 1.66 4.32 2 5 C2.99 5 3.98 5 5 5 C4 7 4 7 2 9 C2.99 10.485 2.99 10.485 4 12 C2.96875 12.66 1.9375 13.32 0.875 14 C-4.33731073 17.70042344 -7.49989667 22.74984501 -11 28 C-13.625 28.1875 -13.625 28.1875 -16 28 C-16.33 28.66 -16.66 29.32 -17 30 C-17.99 29.34 -18.98 28.68 -20 28 C-20 27.34 -20 26.68 -20 26 C-20.66 26 -21.32 26 -22 26 C-20.64708971 15.83489023 -11.96098184 8.66026712 -4.3203125 2.6796875 C-2 1 -2 1 0 0 Z " fill="#912D40" transform="translate(109,62)"/>
<path d="M0 0 C0.1050173 10.39671302 0.02472362 20.64297197 -1 31 C-3.97 31 -6.94 31 -10 31 C-11.44823511 28.10352978 -11.00519634 25.68835083 -10.87890625 22.4609375 C-10.83056641 21.15898437 -10.78222656 19.85703125 -10.73242188 18.515625 C-10.67589606 17.13541196 -10.61925392 15.75520368 -10.5625 14.375 C-10.50927707 12.98699781 -10.45653668 11.59897703 -10.40429688 10.2109375 C-10.27428837 6.80707859 -10.13931117 3.40348883 -10 0 C-6.26798075 -0.84676067 -3.73059699 -0.95929637 0 0 Z " fill="#FAF9FB" transform="translate(227,239)"/>
<path d="M0 0 C2.10476719 2.55578873 4.06508017 5.0997896 5.875 7.875 C7.95839208 10.93881189 10.21765593 13.57904158 12.73046875 16.2890625 C14.16325637 18.22001935 14.67327418 19.62643303 15 22 C14.0625 24.25 14.0625 24.25 13 26 C8.8853081 26.40340117 6.7644606 26.59665217 3.4375 24 C0.51827272 20.40710489 -2.290016 16.7530019 -5 13 C-4.505 11.906875 -4.01 10.81375 -3.5 9.6875 C-1.81160094 6.20033755 -1.81160094 6.20033755 -2 3 C-1.34 3 -0.68 3 0 3 C0 2.01 0 1.02 0 0 Z " fill="#721C31" transform="translate(80,138)"/>
<path d="M0 0 C0.99 0 1.98 0 3 0 C3 1.65 3 3.3 3 5 C3.7425 4.7525 4.485 4.505 5.25 4.25 C6.1575 4.1675 7.065 4.085 8 4 C10.125 5.875 10.125 5.875 12 8 C12.99 8.33 13.98 8.66 15 9 C17.23497944 11.40275269 18.82321403 13.93720438 20 17 C19.83547215 20.03862376 19.08534171 22.10575544 18 25 C16.68 25.33 15.36 25.66 14 26 C14.309375 26.556875 14.61875 27.11375 14.9375 27.6875 C16.05761821 30.12540433 16.56037364 32.36224186 17 35 C16.67 34.34 16.34 33.68 16 33 C15.01 33 14.02 33 13 33 C12.37395415 31.29204966 11.74921585 29.58362002 11.125 27.875 C10.75761719 26.87082031 10.39023438 25.86664063 10.01171875 24.83203125 C9.27117805 22.75908914 8.58754212 20.66557745 7.9375 18.5625 C6.96572243 15.90630796 5.7557786 14.19472325 4 12 C3.30419733 10.68163705 2.62775567 9.35208914 2 8 C1.01 8 0.02 8 -1 8 C-1.33 6.35 -1.66 4.7 -2 3 C-1.67 3.66 -1.34 4.32 -1 5 C-0.34 5 0.32 5 1 5 C0.67 3.35 0.34 1.7 0 0 Z " fill="#932D41" transform="translate(164,68)"/>
<path d="M0 0 C0.66 -0.33 1.32 -0.66 2 -1 C5.25882137 -0.13098097 7.87063402 0.92061633 10.75 2.6875 C11.4925 3.120625 12.235 3.55375 13 4 C13.66 3.67 14.32 3.34 15 3 C15.495 4.98 15.495 4.98 16 7 C17.1446875 6.9690625 17.1446875 6.9690625 18.3125 6.9375 C21 7 21 7 24 8 C24.99 8 25.98 8 27 8 C27.99 9.98 27.99 9.98 29 12 C28.34 12.33 27.68 12.66 27 13 C27.495 14.485 27.495 14.485 28 16 C24.54062736 14.71491615 21.59098593 13.19346518 18.5 11.1875 C0.93307439 0.58007806 -20.3554197 -2.70269215 -40.359375 1.93359375 C-43.93995134 2.84634792 -47.46326642 3.93096214 -51 5 C-52.6618793 5.35643524 -54.32714451 5.69926193 -56 6 C-56 4.35 -56 2.7 -56 1 C-51.4887218 -1.13032581 -51.4887218 -1.13032581 -49.125 -0.5 C-46.42126617 0.13617267 -44.60374174 -0.65135692 -42.00390625 -1.44921875 C-28.89625477 -5.05190658 -13.03791885 -2.94404619 0 0 Z M19 8 C19.66 8.66 20.32 9.32 21 10 C21 9.34 21 8.68 21 8 C20.34 8 19.68 8 19 8 Z " fill="#A23D53" transform="translate(158,28)"/>
<path d="M0 0 C1.07765625 0.00902344 2.1553125 0.01804688 3.265625 0.02734375 C4.08546875 0.03894531 4.9053125 0.05054688 5.75 0.0625 C6.375 2.875 6.375 2.875 6.75 6.0625 C4.75 9.0625 4.75 9.0625 2.68701172 9.58666992 C1.85959473 9.65474854 1.03217773 9.72282715 0.1796875 9.79296875 C-0.71621094 9.87353516 -1.61210937 9.95410156 -2.53515625 10.03710938 C-3.47230469 10.10736328 -4.40945312 10.17761719 -5.375 10.25 C-6.31988281 10.33185547 -7.26476562 10.41371094 -8.23828125 10.49804688 C-10.57476674 10.69865421 -12.91157176 10.8862477 -15.25 11.0625 C-15.91666667 9.72916667 -16.58333333 8.39583333 -17.25 7.0625 C-16.59 7.0625 -15.93 7.0625 -15.25 7.0625 C-14.92 5.7425 -14.59 4.4225 -14.25 3.0625 C-15.57 2.7325 -16.89 2.4025 -18.25 2.0625 C-16.296875 1.83463542 -14.34375 1.60677083 -12.390625 1.37890625 C-10.27567795 1.11332039 -10.27567795 1.11332039 -8.375 0.53125 C-5.55228642 -0.09140741 -2.88692608 -0.03137963 0 0 Z " fill="#A83D50" transform="translate(136.25,38.9375)"/>
<path d="M0 0 C10.07683402 -0.58135581 19.15030522 2.56086068 28.5 6 C29.18255859 6.2489502 29.86511719 6.49790039 30.56835938 6.75439453 C34.12064608 8.10373329 37.10614346 9.51955154 40 12 C39.67 12.99 39.34 13.98 39 15 C38.01 14.67 37.02 14.34 36 14 C35.01 14.33 34.02 14.66 33 15 C30.8125 14.5625 30.8125 14.5625 29 14 C29.33 12.68 29.66 11.36 30 10 C28.25307205 9.32532438 26.50231475 8.66055844 24.75 8 C23.77546875 7.62875 22.8009375 7.2575 21.796875 6.875 C17.85493787 5.64176827 14.28201543 6.02564524 10.25 6.5 C9.45078125 6.5928125 8.6515625 6.685625 7.828125 6.78125 C6.92320312 6.88953125 6.92320312 6.88953125 6 7 C6 6.01 6 5.02 6 4 C5.67 3.34 5.34 2.68 5 2 C2.13275314 2.57344937 1.1385485 2.8614515 -1 5 C-1.33 4.01 -1.66 3.02 -2 2 C-1.34 2 -0.68 2 0 2 C0 1.34 0 0.68 0 0 Z " fill="#AD3F53" transform="translate(143,12)"/>
<path d="M0 0 C9.96324052 7.14754211 17.48817107 19.72042768 22 31 C22 31.66 22 32.32 22 33 C19.0625 32.625 19.0625 32.625 16 32 C15.67 31.34 15.34 30.68 15 30 C15.66 29.67 16.32 29.34 17 29 C16.34 26.69 15.68 24.38 15 22 C13.02 22.66 11.04 23.32 9 24 C8.67 22.35 8.34 20.7 8 19 C8.66 19 9.32 19 10 19 C10 18.34 10 17.68 10 17 C9.34 16.67 8.68 16.34 8 16 C7.65846063 14.33499557 7.32550502 12.66821323 7 11 C4.77810176 8.77810176 2.91517292 8.07401108 0 7 C0 4.69 0 2.38 0 0 Z " fill="#933247" transform="translate(206,42)"/>
<path d="M0 0 C0.763125 0.20625 1.52625 0.4125 2.3125 0.625 C3.5 3.3125 3.5 3.3125 4.3125 6.625 C2.9375 9.5 2.9375 9.5 1.3125 11.625 C2.3025 13.11 2.3025 13.11 3.3125 14.625 C0.6725 15.285 -1.9675 15.945 -4.6875 16.625 C-4.6875 15.635 -4.6875 14.645 -4.6875 13.625 C-4.0275 13.625 -3.3675 13.625 -2.6875 13.625 C-3.79929163 10.28962511 -5.16161298 8.98792656 -7.6875 6.625 C-6.22846393 2.36012534 -5.12714281 -0.71541528 0 0 Z " fill="#F5F1F5" transform="translate(135.6875,225.375)"/>
<path d="M0 0 C2 3 2 3 2 6 C2.04125 6.969375 2.0825 7.93875 2.125 8.9375 C1.99571283 12.10503561 1.3894318 13.25178563 0 16 C-1.58569076 21.66737622 -2.1576935 27.11995444 -2.00390625 32.984375 C-1.99861019 35.71714382 -2.55126534 38.30759203 -3 41 C-3.08421765 44.00211136 -3.0600484 46.99757988 -3 50 C-3.33 50 -3.66 50 -4 50 C-6.44866919 32.99644112 -5.41841743 16.32749785 0 0 Z " fill="#7C263B" transform="translate(42,77)"/>
<path d="M0 0 C1.65 0 3.3 0 5 0 C5 0.99 5 1.98 5 3 C5.99 2.67 6.98 2.34 8 2 C8.33 1.34 8.66 0.68 9 0 C9.99 0.33 10.98 0.66 12 1 C11.34 1 10.68 1 10 1 C10.33 2.98 10.66 4.96 11 7 C11.99 6.67 12.98 6.34 14 6 C18.875 10.625 18.875 10.625 20 14 C19.01 14.495 19.01 14.495 18 15 C18.66 15.66 19.32 16.32 20 17 C19.625 19.125 19.625 19.125 19 21 C18.29875 20.14277344 17.5975 19.28554688 16.875 18.40234375 C12.03028927 12.54314597 7.2989214 6.97748346 1.36328125 2.171875 C0.91339844 1.78515625 0.46351563 1.3984375 0 1 C0 0.67 0 0.34 0 0 Z " fill="#97354A" transform="translate(186,44)"/>
<path d="M0 0 C2.3125 1.875 2.3125 1.875 3.375 3.8125 C3.3125 5.875 3.3125 5.875 1.75 8.1875 C-0.6875 9.875 -0.6875 9.875 -3.875 9.6875 C-6.6875 8.875 -6.6875 8.875 -7.6875 7.875 C-7.33866279 1.47965116 -7.33866279 1.47965116 -4.9375 -0.75 C-2.6875 -1.125 -2.6875 -1.125 0 0 Z " fill="#F9F3F7" transform="translate(223.6875,226.125)"/>
<path d="M0 0 C2 3 2 3 2 6 C2.66 6 3.32 6 4 6 C5.09845718 10.32059823 6.17812739 14.61667943 7 19 C8.65 19.33 10.3 19.66 12 20 C12.33 21.32 12.66 22.64 13 24 C12.34 24 11.68 24 11 24 C11 24.99 11 25.98 11 27 C11.66 27 12.32 27 13 27 C12.34 28.32 11.68 29.64 11 31 C4.61413501 22.05978901 0.67327719 10.99686076 0 0 Z " fill="#711E35" transform="translate(39,127)"/>
<path d="M0 0 C0.99 0.33 1.98 0.66 3 1 C4.1875 3.5625 4.1875 3.5625 5 6 C4.01 5.67 3.02 5.34 2 5 C-1.56881097 8.41228417 -4.51101912 11.92068927 -7.375 15.9375 C-10.88554402 20.71819061 -14.41184094 24.29042459 -19 28 C-19 28.66 -19 29.32 -19 30 C-20.32 29.67 -21.64 29.34 -23 29 C-22.34 28.34 -21.68 27.68 -21 27 C-20.54367188 26.53980469 -20.08734375 26.07960937 -19.6171875 25.60546875 C-18.47094791 24.46753524 -17.3076038 23.34671405 -16.1328125 22.23828125 C-9.39647823 15.77716686 -3.8255498 8.55122897 0 0 Z " fill="#5F1729" transform="translate(209,148)"/>
<path d="M0 0 C0.66 0.33 1.32 0.66 2 1 C-4.79796571 8.60724734 -12.34274624 13.79087007 -21 19 C-22 16 -22 16 -21.3515625 13.859375 C-20 12 -20 12 -17.8359375 11.390625 C-17.02382812 11.34421875 -16.21171875 11.2978125 -15.375 11.25 C-14.55773437 11.19328125 -13.74046875 11.1365625 -12.8984375 11.078125 C-12.27195313 11.05234375 -11.64546875 11.0265625 -11 11 C-11 10.34 -11 9.68 -11 9 C-10.01 9 -9.02 9 -8 9 C-7.9175 8.4225 -7.835 7.845 -7.75 7.25 C-6.7766189 4.3298567 -5.32386725 2.98212207 -3 1 C-2.01 0.67 -1.02 0.34 0 0 Z " fill="#5D1528" transform="translate(206,175)"/>
<path d="M0 0 C4.03932853 -0.28580155 7.97005043 -0.45551292 12 0 C14.75 2.5 14.75 2.5 16 5 C16.474375 4.175 16.94875 3.35 17.4375 2.5 C20.34926408 -0.34074545 20.88515746 -0.34293183 24.75 -0.3125 C26.16823316 -0.23243845 27.58603027 -0.13595863 29 0 C29 0.33 29 0.66 29 1 C27.88625 1.12375 27.88625 1.12375 26.75 1.25 C23.47638903 2.14280299 22.28034682 3.56238789 20 6 C19.34 6 18.68 6 18 6 C17.34 6.66 16.68 7.32 16 8 C12.125 5.125 12.125 5.125 11 4 C11 3.01 11 2.02 11 1 C6.39257135 2.21044132 6.39257135 2.21044132 2 4 C2 3.34 2 2.68 2 2 C1.34 2 0.68 2 0 2 C0 1.34 0 0.68 0 0 Z " fill="#F6EDF1" transform="translate(230,239)"/>
<path d="M0 0 C0.66 0.33 1.32 0.66 2 1 C1.67 2.32 1.34 3.64 1 5 C0.01 5 -0.98 5 -2 5 C-2.33 5.66 -2.66 6.32 -3 7 C-3.66 7 -4.32 7 -5 7 C-9.75345073 10.20296506 -9.75345073 10.20296506 -11.875 15.3125 C-11.91625 16.199375 -11.9575 17.08625 -12 18 C-13.5625 16.875 -13.5625 16.875 -15 15 C-15.1875 12.125 -15.1875 12.125 -14 9 C-11.5323526 6.96506802 -8.80121582 5.52561663 -6 4 C-4.82416505 3.24322572 -3.65620412 2.47393956 -2.5 1.6875 C-1.675 1.130625 -0.85 0.57375 0 0 Z " fill="#60182D" transform="translate(180,180)"/>
<path d="M0 0 C2.98890949 2.41041088 3.94391214 3.78686613 4.9375 7.5625 C5 11 5 11 3.875 12.9375 C1.17553184 14.46719862 0.0673077 14.71332737 -3 14 C-5.31993753 11.8989245 -7.27867441 9.61452203 -9 7 C-9 6.34 -9 5.68 -9 5 C-8.34 5 -7.68 5 -7 5 C-6.401875 5.969375 -5.80375 6.93875 -5.1875 7.9375 C-3.31816449 11.20119997 -3.31816449 11.20119997 -0.25 11.875 C0.4925 11.91625 1.235 11.9575 2 12 C1.566875 11.13375 1.566875 11.13375 1.125 10.25 C0.75375 9.5075 0.3825 8.765 0 8 C-0.61875 7.01 -0.61875 7.01 -1.25 6 C-2 4 -2 4 -1.125 1.75 C-0.75375 1.1725 -0.3825 0.595 0 0 Z " fill="#762737" transform="translate(97,130)"/>
<path d="M0 0 C0.66 0.33 1.32 0.66 2 1 C1.67 1.66 1.34 2.32 1 3 C0.01 3 -0.98 3 -2 3 C-2.2475 3.763125 -2.495 4.52625 -2.75 5.3125 C-4.10995558 8.2364045 -5.31585826 9.30004356 -8 11 C-8 10.34 -8 9.68 -8 9 C-8.60585937 9.0721875 -9.21171875 9.144375 -9.8359375 9.21875 C-15.91834595 9.8924937 -21.88302138 10.11713363 -28 10 C-28 9.67 -28 9.34 -28 9 C-27.10539063 8.90203125 -26.21078125 8.8040625 -25.2890625 8.703125 C-15.89383046 7.54124129 -7.54069236 5.98819688 0 0 Z " fill="#681B30" transform="translate(162,143)"/>
<path d="M0 0 C0.66 0.33 1.32 0.66 2 1 C1.5153125 1.37769531 1.030625 1.75539062 0.53125 2.14453125 C-4.65299845 6.40159681 -8.43882001 11.02879335 -12.23828125 16.546875 C-13.71044662 18.59680815 -15.15289167 20.29497692 -17 22 C-16.49287967 18.28111761 -15.88391785 15.26545761 -14 12 C-13.01 12 -12.02 12 -11 12 C-11 11.34 -11 10.68 -11 10 C-10.34 10 -9.68 10 -9 10 C-8.67 8.68 -8.34 7.36 -8 6 C-7.34 6 -6.68 6 -6 6 C-6 5.34 -6 4.68 -6 4 C-4.02709413 1.65130253 -2.99693138 0.99897713 0 0 Z " fill="#8F3849" transform="translate(80,47)"/>
<path d="M0 0 C0.66 0 1.32 0 2 0 C1.5875 1.19625 1.175 2.3925 0.75 3.625 C-2.69688454 14.08054978 -5.59463853 23.9336319 -6 35 C-6.33 35 -6.66 35 -7 35 C-7.72804302 16.25289229 -7.72804302 16.25289229 -3 8 C-2.3893309 6.48993541 -1.80473596 4.96899594 -1.25 3.4375 C-0.8375 2.303125 -0.425 1.16875 0 0 Z " fill="#7E3243" transform="translate(59,73)"/>
<path d="M0 0 C1.5625 1.8125 1.5625 1.8125 3 4 C2.67 4.99 2.34 5.98 2 7 C2.33 7.99 2.66 8.98 3 10 C2.0925 10.5775 1.185 11.155 0.25 11.75 C-2.52022946 13.66785116 -4.71945499 15.54402845 -7 18 C-5.64474464 13.78224268 -4.09799886 9.70578678 -2.375 5.625 C-1.92898437 4.56539062 -1.48296875 3.50578125 -1.0234375 2.4140625 C-0.68570313 1.61742188 -0.34796875 0.82078125 0 0 Z " fill="#762134" transform="translate(195,126)"/>
<path d="M0 0 C2.11161731 13.6332574 2.11161731 13.6332574 3 20 C1 18 1 18 0 15 C-0.99 14.67 -1.98 14.34 -3 14 C-2.67 11.69 -2.34 9.38 -2 7 C-2.66 6.67 -3.32 6.34 -4 6 C-3.625 3.5625 -3.625 3.5625 -3 1 C-1 0 -1 0 0 0 Z " fill="#792639" transform="translate(53,116)"/>
<path d="M0 0 C6.75 0.75 6.75 0.75 9 3 C9.125 5.625 9.125 5.625 9 8 C6.75 8.3125 6.75 8.3125 4 8 C1.6875 5.6875 1.6875 5.6875 0 3 C0 2.01 0 1.02 0 0 Z " fill="#832034" transform="translate(90,134)"/>
<path d="M0 0 C0.99 0.33 1.98 0.66 3 1 C3.10055982 11.05598201 3.09945892 20.98707052 2 31 C1.67 31 1.34 31 1 31 C-0.19148936 9.27659574 -0.19148936 9.27659574 0 0 Z " fill="#F5EBF1" transform="translate(224,238)"/>
<path d="M0 0 C6.53752644 3.19921507 11.03573118 7.73179635 16 13 C15.01 13.33 14.02 13.66 13 14 C11.5 12.625 11.5 12.625 10 11 C10 10.34 10 9.68 10 9 C7.6050537 7.71041353 5.44024662 6.83536665 2.8125 6.0625 C1.884375 5.711875 0.95625 5.36125 0 5 C-0.33 4.01 -0.66 3.02 -1 2 C-0.67 1.34 -0.34 0.68 0 0 Z " fill="#9E3B4E" transform="translate(190,28)"/>
<path d="M0 0 C1.21816406 0.03480469 1.21816406 0.03480469 2.4609375 0.0703125 C3.68683594 0.09738281 3.68683594 0.09738281 4.9375 0.125 C5.87722656 0.15980469 5.87722656 0.15980469 6.8359375 0.1953125 C8.28417261 3.09178272 7.84113384 5.50696167 7.71484375 8.734375 C7.66650391 10.03632813 7.61816406 11.33828125 7.56835938 12.6796875 C7.51183356 14.05990054 7.45519142 15.44010882 7.3984375 16.8203125 C7.34521457 18.20831469 7.29247418 19.59633547 7.24023438 20.984375 C7.11022587 24.38823391 6.97524867 27.79182367 6.8359375 31.1953125 C6.5059375 31.1953125 6.1759375 31.1953125 5.8359375 31.1953125 C5.5059375 21.6253125 5.1759375 12.0553125 4.8359375 2.1953125 C1.8659375 1.7003125 1.8659375 1.7003125 -1.1640625 1.1953125 C-1.1640625 1.8553125 -1.1640625 2.5153125 -1.1640625 3.1953125 C-2.1540625 2.8653125 -3.1440625 2.5353125 -4.1640625 2.1953125 C-2.1640625 0.1953125 -2.1640625 0.1953125 0 0 Z " fill="#F2E4EA" transform="translate(41.1640625,238.8046875)"/>
<path d="M0 0 C0.66 0.33 1.32 0.66 2 1 C0.55258909 5.27964198 -1.59130627 8.32135596 -4.4375 11.8125 C-5.21996094 12.78832031 -6.00242188 13.76414063 -6.80859375 14.76953125 C-7.89333984 15.87361328 -7.89333984 15.87361328 -9 17 C-9.99 17 -10.98 17 -12 17 C-11 14 -11 14 -8 12 C-7.814375 11.0409375 -7.814375 11.0409375 -7.625 10.0625 C-7 8 -7 8 -4.5625 6.5625 C-1.5196118 4.70708037 -0.99512398 3.34723519 0 0 Z " fill="#67192B" transform="translate(219,157)"/>
<path d="M0 0 C0 0.66 0 1.32 0 2 C-0.639375 2.12375 -1.27875 2.2475 -1.9375 2.375 C-2.618125 2.58125 -3.29875 2.7875 -4 3 C-4.33 3.66 -4.66 4.32 -5 5 C-7.30532837 6.30635274 -9.47571223 7.15857074 -12 8 C-12.33 8.66 -12.66 9.32 -13 10 C-13.99 10 -14.98 10 -16 10 C-14.52907147 6.19872403 -12.59783572 4.7904198 -9.125 2.75 C-8.26132813 2.22921875 -7.39765625 1.7084375 -6.5078125 1.171875 C-4 0 -4 0 0 0 Z " fill="#9F3D4F" transform="translate(94,22)"/>
<path d="M0 0 C3.26954202 0.56371414 4.82575883 1.49962266 7 4 C6.34 5.32 5.68 6.64 5 8 C5.66 8.33 6.32 8.66 7 9 C7.6328125 10.84765625 7.6328125 10.84765625 8.125 13.0625 C8.29257813 13.79597656 8.46015625 14.52945313 8.6328125 15.28515625 C8.75398437 15.85105469 8.87515625 16.41695312 9 17 C8.34 17 7.68 17 7 17 C5.82866942 14.54379149 4.66278278 12.08525083 3.5 9.625 C3.16613281 8.92632812 2.83226562 8.22765625 2.48828125 7.5078125 C0 2.2265625 0 2.2265625 0 0 Z " fill="#92344B" transform="translate(207,67)"/>
<path d="M0 0 C0.66 0 1.32 0 2 0 C2 1.32 2 2.64 2 4 C2.66 4.33 3.32 4.66 4 5 C4 5.66 4 6.32 4 7 C4.474375 7.433125 4.94875 7.86625 5.4375 8.3125 C7.41990227 10.45349445 7.492555 12.1728064 8 15 C8.66 15.66 9.32 16.32 10 17 C9.34 17.66 8.68 18.32 8 19 C6.65929682 16.39939496 5.32726646 13.79495084 4 11.1875 C3.6184375 10.44951172 3.236875 9.71152344 2.84375 8.95117188 C2.4828125 8.23896484 2.121875 7.52675781 1.75 6.79296875 C1.41484375 6.1383667 1.0796875 5.48376465 0.734375 4.80932617 C0 3 0 3 0 0 Z " fill="#752437" transform="translate(66,131)"/>
<path d="M0 0 C0 0.66 0 1.32 0 2 C-0.969375 2.12375 -1.93875 2.2475 -2.9375 2.375 C-3.948125 2.58125 -4.95875 2.7875 -6 3 C-6.33 3.66 -6.66 4.32 -7 5 C-11.47540984 6.26229508 -11.47540984 6.26229508 -14 5 C-13.67 4.01 -13.34 3.02 -13 2 C-11.07421875 1.26953125 -11.07421875 1.26953125 -8.6875 0.8125 C-7.90761719 0.65394531 -7.12773438 0.49539063 -6.32421875 0.33203125 C-4 0 -4 0 0 0 Z " fill="#AC4255" transform="translate(124,13)"/>
<path d="M0 0 C0.66 0 1.32 0 2 0 C2.86366822 1.78710586 3.71568594 3.5798465 4.5625 5.375 C5.27599609 6.87160156 5.27599609 6.87160156 6.00390625 8.3984375 C6.33261719 9.25695312 6.66132812 10.11546875 7 11 C6.67 11.66 6.34 12.32 6 13 C3.47411298 10.63707344 2.11179163 9.33537489 1 6 C0.34 5.67 -0.32 5.34 -1 5 C-0.67 3.35 -0.34 1.7 0 0 Z " fill="#742137" transform="translate(56,139)"/>
<path d="M0 0 C0.66 0 1.32 0 2 0 C1.34580901 5.06998019 -0.8546409 9.41990777 -3 14 C-3.66 14 -4.32 14 -5 14 C-5.35048466 9.79418409 -4.61867025 8.22297877 -2 5 C-1.28837557 3.35202764 -0.60968047 1.68834592 0 0 Z " fill="#762338" transform="translate(203,132)"/>
<path d="M0 0 C0.33 0 0.66 0 1 0 C1 3.63 1 7.26 1 11 C1.66 11.33 2.32 11.66 3 12 C2.690625 13.0725 2.38125 14.145 2.0625 15.25 C1.33187904 17.82866222 0.62517096 20.39512102 0 23 C-1.72326744 19.35072777 -1.99203056 17.81148584 -1 14 C-0.77882441 11.5861824 -0.59427758 9.16885403 -0.4375 6.75 C-0.35371094 5.48671875 -0.26992187 4.2234375 -0.18359375 2.921875 C-0.12300781 1.95765625 -0.06242188 0.9934375 0 0 Z " fill="#7A283C" transform="translate(178,104)"/>
<path d="M0 0 C0.33 0 0.66 0 1 0 C1.33 3.3 1.66 6.6 2 10 C2.33 10 2.66 10 3 10 C3 12.97 3 15.94 3 19 C0 16 0 16 -0.29296875 12.20703125 C-0.2730801 10.74190067 -0.23737968 9.27691633 -0.1875 7.8125 C-0.17396484 7.06291016 -0.16042969 6.31332031 -0.14648438 5.54101562 C-0.11118539 3.69370233 -0.05737917 1.84675934 0 0 Z " fill="#561328" transform="translate(89,185)"/>
<path d="M0 0 C0.99 0.33 1.98 0.66 3 1 C4.1875 3.5625 4.1875 3.5625 5 6 C4.01 5.67 3.02 5.34 2 5 C0.35 6.65 -1.3 8.3 -3 10 C-3.66 9.67 -4.32 9.34 -5 9 C-3.35 6.03 -1.7 3.06 0 0 Z " fill="#6C1C2F" transform="translate(209,148)"/>
<path d="M0 0 C0.67353516 0.08121094 1.34707031 0.16242187 2.04101562 0.24609375 C2.73388672 0.31183594 3.42675781 0.37757812 4.140625 0.4453125 C5.83860081 0.60925499 7.53395266 0.79999338 9.22851562 0.99609375 C9.22851562 1.32609375 9.22851562 1.65609375 9.22851562 1.99609375 C2.62851563 2.65609375 -3.97148438 3.31609375 -10.77148438 3.99609375 C-5.20507812 -0.45703125 -5.20507812 -0.45703125 0 0 Z " fill="#963C4F" transform="translate(123.771484375,26.00390625)"/>
<path d="M0 0 C0.91007813 0.00902344 1.82015625 0.01804687 2.7578125 0.02734375 C3.45648438 0.03894531 4.15515625 0.05054688 4.875 0.0625 C3.885 0.5575 3.885 0.5575 2.875 1.0625 C2.875 1.7225 2.875 2.3825 2.875 3.0625 C2.25625 2.85625 1.6375 2.65 1 2.4375 C0.29875 2.31375 -0.4025 2.19 -1.125 2.0625 C-1.785 2.7225 -2.445 3.3825 -3.125 4.0625 C-3.785 3.7325 -4.445 3.4025 -5.125 3.0625 C-5.455 3.7225 -5.785 4.3825 -6.125 5.0625 C-6.455 3.7425 -6.785 2.4225 -7.125 1.0625 C-4.60024538 -0.19987731 -2.81299534 -0.03606404 0 0 Z " fill="#AB4257" transform="translate(137.125,10.9375)"/>
<path d="M0 0 C2.85137362 2.85137362 3.4649997 6.11278262 4 10 C3.88329496 12.75423898 3.48652274 15.27547267 3 18 C2.67 18 2.34 18 2 18 C1.6603981 16.12612523 1.32861309 14.25083303 1 12.375 C0.7215625 10.80878906 0.7215625 10.80878906 0.4375 9.2109375 C0.01284203 6.09425135 -0.07545206 3.14069188 0 0 Z " fill="#802C3F" transform="translate(218,97)"/>
<path d="M0 0 C0.99 1.32 1.98 2.64 3 4 C2.25 5.9375 2.25 5.9375 1 8 C-1.125 8.75 -1.125 8.75 -3 9 C-3 5 -3 5 -2 3 C-1.34 3 -0.68 3 0 3 C0 2.01 0 1.02 0 0 Z " fill="#7B2236" transform="translate(80,138)"/>
<path d="M0 0 C0.99 0 1.98 0 3 0 C3.6875 1.8125 3.6875 1.8125 4 4 C2.75 5.75 2.75 5.75 1 7 C0.01 7 -0.98 7 -2 7 C-1.125 2.25 -1.125 2.25 0 0 Z " fill="#8F2F41" transform="translate(226,76)"/>
<path d="M0 0 C0.66 0.33 1.32 0.66 2 1 C0.7934375 2.36125 0.7934375 2.36125 -0.4375 3.75 C-2.41142671 6.10309908 -3.63877467 7.86938046 -4 11 C-6 8 -6 8 -6 4 C-3 1.75 -3 1.75 0 0 Z " fill="#5B1226" transform="translate(171,187)"/>
<path d="M0 0 C2.23079726 2.41669703 2.96940652 3.75015327 3.375 7.0625 C3 10 3 10 1.5 11.875 C0.7575 12.431875 0.7575 12.431875 0 13 C-0.66 12.67 -1.32 12.34 -2 12 C-0.68 10.02 0.64 8.04 2 6 C1.34 6 0.68 6 0 6 C0 4.02 0 2.04 0 0 Z " fill="#691F34" transform="translate(63,152)"/>
<path d="M0 0 C0.66 0 1.32 0 2 0 C0.25192871 5.46737191 -1.65794081 10.75824848 -4 16 C-5.56374525 12.87250951 -4.16043785 10.69020303 -3.125 7.4375 C-2.75632813 6.26058594 -2.38765625 5.08367187 -2.0078125 3.87109375 C-1 1 -1 1 0 0 Z " fill="#8C374B" transform="translate(59,73)"/>
<path d="M0 0 C1.32 0.33 2.64 0.66 4 1 C4.1875 4.375 4.1875 4.375 4 8 C3.01 8.66 2.02 9.32 1 10 C0.67 8.35 0.34 6.7 0 5 C0.66 5 1.32 5 2 5 C2 4.34 2 3.68 2 3 C1.34 2.67 0.68 2.34 0 2 C0 1.34 0 0.68 0 0 Z " fill="#9B2C42" transform="translate(214,56)"/>
<path d="M0 0 C0.66 0.33 1.32 0.66 2 1 C1.875 2.875 1.875 2.875 1 5 C-2.0625 6.25 -2.0625 6.25 -5 7 C-4.60196439 4.11424181 -4.20990931 3.17810487 -1.9375 1.25 C-1.298125 0.8375 -0.65875 0.425 0 0 Z " fill="#943649" transform="translate(77,30)"/>
<path d="M0 0 C-0.99 0.495 -0.99 0.495 -2 1 C-2.72159424 2.64363134 -3.39351421 4.31050386 -4 6 C-4.86625 5.319375 -4.86625 5.319375 -5.75 4.625 C-7.7800333 3.15886484 -9.73539843 2.05142216 -12 1 C-7.95858806 0.36605303 -4.0934693 -0.12404452 0 0 Z " fill="#9E3852" transform="translate(132,11)"/>
<path d="M0 0 C1.32 1.32 2.64 2.64 4 4 C1.36 4.66 -1.28 5.32 -4 6 C-4 5.01 -4 4.02 -4 3 C-3.34 3 -2.68 3 -2 3 C-2 2.34 -2 1.68 -2 1 C-1.34 0.67 -0.68 0.34 0 0 Z " fill="#E7D4DA" transform="translate(135,236)"/>
<path d="M0 0 C2.35171131 0.59861742 4.6859378 1.26924352 7 2 C7.33 2.66 7.66 3.32 8 4 C5.03 4 2.06 4 -1 4 C-0.67 2.68 -0.34 1.36 0 0 Z " fill="#A94053" transform="translate(159,27)"/>
<path d="M0 0 C1.32 0.33 2.64 0.66 4 1 C4 1.66 4 2.32 4 3 C7.63 3 11.26 3 15 3 C15 3.33 15 3.66 15 4 C10.71 4 6.42 4 2 4 C1.34 2.68 0.68 1.36 0 0 Z " fill="#5A162C" transform="translate(132,178)"/>
<path d="M0 0 C0.66 0 1.32 0 2 0 C0.74194623 4.50802601 -0.90407165 7.4912812 -4 11 C-2.55172414 2.55172414 -2.55172414 2.55172414 0 0 Z " fill="#671C30" transform="translate(225,147)"/>
<path d="M0 0 C0.66 0 1.32 0 2 0 C2.99 3.3 3.98 6.6 5 10 C4.01 10 3.02 10 2 10 C1.34 6.7 0.68 3.4 0 0 Z " fill="#8A3147" transform="translate(215,85)"/>
<path d="M0 0 C-0.99 1.485 -0.99 1.485 -2 3 C-3.32 3 -4.64 3 -6 3 C-6 3.66 -6 4.32 -6 5 C-7.32 4.67 -8.64 4.34 -10 4 C-10 3.34 -10 2.68 -10 2 C-6.49223216 0.39644899 -3.85645121 -0.22036864 0 0 Z " fill="#A33953" transform="translate(116,42)"/>
<path d="M0 0 C0.99 0.33 1.98 0.66 3 1 C3 2.32 3 3.64 3 5 C1.125 5.625 1.125 5.625 -1 6 C-1.66 5.34 -2.32 4.68 -3 4 C-2.67 3.01 -2.34 2.02 -2 1 C-1.34 0.67 -0.68 0.34 0 0 Z " fill="#AD3C50" transform="translate(97,20)"/>
<path d="M0 0 C0.99 0.66 1.98 1.32 3 2 C0.63707344 4.52588702 -0.66462511 5.88820837 -4 7 C-4 5.35 -4 3.7 -4 2 C-2.68 1.34 -1.36 0.68 0 0 Z " fill="#AB394F" transform="translate(106,27)"/>
<path d="M0 0 C0.66 0 1.32 0 2 0 C1.25 6.625 1.25 6.625 -1 10 C-2.15837626 5.94568308 -1.83691257 3.78187881 0 0 Z " fill="#681E34" transform="translate(229,135)"/>
<path d="M0 0 C-3.465 2.97 -3.465 2.97 -7 6 C-6.75 3.625 -6.75 3.625 -6 1 C-2.69333333 -1.34666667 -2.69333333 -1.34666667 0 0 Z " fill="#661730" transform="translate(208,176)"/>
<path d="M0 0 C1.65 0 3.3 0 5 0 C4.34 1.65 3.68 3.3 3 5 C1.68 4.67 0.36 4.34 -1 4 C-0.34 3.34 0.32 2.68 1 2 C0.67 1.34 0.34 0.68 0 0 Z " fill="#752135" transform="translate(192,148)"/>
<path d="M0 0 C0.99 0.33 1.98 0.66 3 1 C3 3.64 3 6.28 3 9 C2.34 9 1.68 9 1 9 C0.67 6.03 0.34 3.06 0 0 Z " fill="#852D42" transform="translate(230,89)"/>
<path d="M0 0 C0.66 0.66 1.32 1.32 2 2 C-3.75 5 -3.75 5 -6 5 C-5.67 3.68 -5.34 2.36 -5 1 C-2.625 0.375 -2.625 0.375 0 0 Z " fill="#913047" transform="translate(111,52)"/>
<path d="M0 0 C0.99 0.33 1.98 0.66 3 1 C2.34 1 1.68 1 1 1 C1.33 2.98 1.66 4.96 2 7 C1.01 6.67 0.02 6.34 -1 6 C-1.042721 4.33388095 -1.04063832 2.66617115 -1 1 C-0.67 0.67 -0.34 0.34 0 0 Z " fill="#A33248" transform="translate(195,44)"/>
<path d="M0 0 C3 1 3 1 3 1 Z " fill="#E28E8E" transform="translate(219,237)"/>
</svg>
